<svg width="95" height="28" viewBox="0 0 95 28" fill="none" xmlns="http://www.w3.org/2000/svg">
<path d="M0.170455 27V0.818181H9.32386C11.1477 0.818181 12.652 1.13352 13.8366 1.7642C15.0213 2.38636 15.9034 3.22585 16.483 4.28267C17.0625 5.33096 17.3523 6.49432 17.3523 7.77273C17.3523 8.89773 17.152 9.8267 16.7514 10.5597C16.3594 11.2926 15.8395 11.8722 15.1918 12.2983C14.5526 12.7244 13.858 13.0398 13.108 13.2443V13.5C13.9091 13.5511 14.7145 13.8324 15.5241 14.3438C16.3338 14.8551 17.0114 15.5881 17.5568 16.5426C18.1023 17.4972 18.375 18.6648 18.375 20.0455C18.375 21.358 18.0767 22.5384 17.4801 23.5866C16.8835 24.6349 15.9418 25.4659 14.6548 26.0795C13.3679 26.6932 11.6932 27 9.63068 27H0.170455ZM3.34091 24.1875H9.63068C11.7017 24.1875 13.1719 23.7869 14.0412 22.9858C14.919 22.1761 15.358 21.196 15.358 20.0455C15.358 19.1591 15.1321 18.3409 14.6804 17.5909C14.2287 16.8324 13.5852 16.2273 12.75 15.7756C11.9148 15.3153 10.9261 15.0852 9.78409 15.0852H3.34091V24.1875ZM3.34091 12.3239H9.22159C10.1761 12.3239 11.0369 12.1364 11.804 11.7614C12.5795 11.3864 13.1932 10.858 13.6449 10.1761C14.1051 9.49432 14.3352 8.69318 14.3352 7.77273C14.3352 6.62216 13.9347 5.64631 13.1335 4.84517C12.3324 4.03551 11.0625 3.63068 9.32386 3.63068H3.34091V12.3239ZM23.1754 27V7.36364H26.0902V10.3295H26.2947C26.6527 9.35795 27.3004 8.5696 28.2379 7.96449C29.1754 7.35937 30.2322 7.05682 31.4084 7.05682C31.63 7.05682 31.907 7.06108 32.2393 7.0696C32.5717 7.07812 32.8232 7.09091 32.9936 7.10795V10.1761C32.8913 10.1506 32.657 10.1122 32.2905 10.0611C31.9325 10.0014 31.5533 9.97159 31.1527 9.97159C30.1982 9.97159 29.3459 10.1719 28.5959 10.5724C27.8544 10.9645 27.2663 11.5099 26.8317 12.2088C26.4055 12.8991 26.1925 13.6875 26.1925 14.5739V27H23.1754ZM44.2053 27.4091C42.3132 27.4091 40.6811 26.9915 39.3089 26.1562C37.9453 25.3125 36.8928 24.1364 36.1513 22.6278C35.4183 21.1108 35.0518 19.3466 35.0518 17.3352C35.0518 15.3239 35.4183 13.5511 36.1513 12.017C36.8928 10.4744 37.924 9.27273 39.245 8.41193C40.5746 7.54261 42.1257 7.10795 43.8984 7.10795C44.9212 7.10795 45.9311 7.27841 46.9283 7.61932C47.9254 7.96023 48.8331 8.5142 49.6513 9.28125C50.4695 10.0398 51.1214 11.0455 51.6072 12.2983C52.093 13.5511 52.3359 15.0937 52.3359 16.9261V18.2045H37.1996V15.5966H49.2678C49.2678 14.4886 49.0462 13.5 48.603 12.6307C48.1683 11.7614 47.5462 11.0753 46.7365 10.5724C45.9354 10.0696 44.9893 9.81818 43.8984 9.81818C42.6967 9.81818 41.657 10.1165 40.7791 10.7131C39.9098 11.3011 39.2408 12.0682 38.772 13.0142C38.3033 13.9602 38.0689 14.9744 38.0689 16.0568V17.7955C38.0689 19.2784 38.3246 20.5355 38.8359 21.5668C39.3558 22.5895 40.076 23.3693 40.9964 23.9062C41.9169 24.4347 42.9865 24.6989 44.2053 24.6989C44.9979 24.6989 45.7138 24.5881 46.353 24.3665C47.0007 24.1364 47.5589 23.7955 48.0277 23.3438C48.4964 22.8835 48.8587 22.3125 49.1143 21.6307L52.0291 22.4489C51.7223 23.4375 51.2067 24.3068 50.4822 25.0568C49.7578 25.7983 48.8629 26.3778 47.7976 26.7955C46.7322 27.2045 45.5348 27.4091 44.2053 27.4091ZM59.9425 15.1875V27H56.9254V7.36364H59.8402V10.4318H60.0959C60.5561 9.43466 61.255 8.63352 62.1925 8.02841C63.13 7.41477 64.3402 7.10795 65.8232 7.10795C67.1527 7.10795 68.3161 7.38068 69.3132 7.92614C70.3104 8.46307 71.0859 9.28125 71.6399 10.3807C72.1939 11.4716 72.4709 12.8523 72.4709 14.5227V27H69.4538V14.7273C69.4538 13.1847 69.0533 11.983 68.2521 11.1222C67.451 10.2528 66.3516 9.81818 64.9538 9.81818C63.9908 9.81818 63.13 10.027 62.3714 10.4446C61.6214 10.8622 61.0291 11.4716 60.5945 12.2727C60.1598 13.0739 59.9425 14.0455 59.9425 15.1875ZM85.9613 27.4091C84.1886 27.4091 82.6332 26.9872 81.2951 26.1435C79.9656 25.2997 78.9258 24.1193 78.1758 22.6023C77.4343 21.0852 77.0636 19.3125 77.0636 17.2841C77.0636 15.2386 77.4343 13.4531 78.1758 11.9276C78.9258 10.402 79.9656 9.21733 81.2951 8.37358C82.6332 7.52983 84.1886 7.10795 85.9613 7.10795C87.734 7.10795 89.2852 7.52983 90.6147 8.37358C91.9528 9.21733 92.9925 10.402 93.734 11.9276C94.484 13.4531 94.859 15.2386 94.859 17.2841C94.859 19.3125 94.484 21.0852 93.734 22.6023C92.9925 24.1193 91.9528 25.2997 90.6147 26.1435C89.2852 26.9872 87.734 27.4091 85.9613 27.4091ZM85.9613 24.6989C87.3079 24.6989 88.4158 24.3537 89.2852 23.6634C90.1545 22.973 90.7979 22.0653 91.2156 20.9403C91.6332 19.8153 91.842 18.5966 91.842 17.2841C91.842 15.9716 91.6332 14.7486 91.2156 13.6151C90.7979 12.4815 90.1545 11.5653 89.2852 10.8665C88.4158 10.1676 87.3079 9.81818 85.9613 9.81818C84.6147 9.81818 83.5067 10.1676 82.6374 10.8665C81.7681 11.5653 81.1246 12.4815 80.707 13.6151C80.2894 14.7486 80.0806 15.9716 80.0806 17.2841C80.0806 18.5966 80.2894 19.8153 80.707 20.9403C81.1246 22.0653 81.7681 22.973 82.6374 23.6634C83.5067 24.3537 84.6147 24.6989 85.9613 24.6989Z" fill="url(#paint0_linear_1_2)"/>
<defs>
<linearGradient id="paint0_linear_1_2" x1="-3" y1="14" x2="173" y2="14" gradientUnits="userSpaceOnUse">
<stop stop-color="#768AA7"/>
<stop offset="1" stop-color="#002074"/>
</linearGradient>
</defs>
</svg>
